# xmcd CD database file
#
# Track frame offsets:
#	150
#	18180
#	32380
#	45215
#	58918
#	78618
#	90360
#	101308
#	111748
#	130898
#
# Disc length: 1984 seconds
#
# Revision: 0
# Processed by: cddbd v1.5.1PL0 Copyright (c) Steve Scherf et al.
# Submitted via: Feurio! 1.67 - http://www.feurio.com
#
DISCID=7207be0a
DTITLE=Hank Williams Jr. - Hank Williams Jr.'s Greatest Hits
DYEAR=1982
DGENRE=Country
TTITLE0=??? - Family Tradition
TTITLE1=??? - Whiskey Bent And Hell Bound
TTITLE2=??? - Women I've Never Had
TTITLE3=??? - Old Habits
TTITLE4=??? - Kaw-liga
TTITLE5=??? - Dixie On My Mind
TTITLE6=??? - Texas Women
TTITLE7=??? - The American Dream
TTITLE8=??? - A Country Boy Can Survive
TTITLE9=??? - All My Rowdy Friends ( Have Settled Down )
EXTD=(c)1982 Warner Bros - CURB Records\r\nCD 60193\r\nupc 07588274712
EXTT0=
EXTT1=
EXTT2=
EXTT3=
EXTT4=
EXTT5=
EXTT6=
EXTT7=
EXTT8=
EXTT9=
PLAYORDER=
